<svg width="20" height="20" viewBox="0 0 20 20" fill="none" xmlns="http://www.w3.org/2000/svg">
<path fill-rule="evenodd" clip-rule="evenodd" d="M18.8889 3C19.5025 3 20 3.44772 20 4C20 4.55228 19.5025 5 18.8889 5H17.7778V16.5C17.7778 18.433 16.0367 20 13.8889 20H6.11111C3.96334 20 2.22222 18.433 2.22222 16.5V5H1.11111C0.497461 5 0 4.55228 0 4C0 3.44772 0.497461 3 1.11111 3H18.8889ZM15.5554 5H4.44434V16C4.44434 17.1046 5.43926 18 6.66656 18H13.3332C14.5605 18 15.5554 17.1046 15.5554 16V5ZM7.77762 7C8.39126 7 8.88873 7.44772 8.88873 8V14C8.88873 14.5523 8.39126 15 7.77762 15C7.16397 15 6.6665 14.5523 6.6665 14V8C6.6665 7.44772 7.16397 7 7.77762 7ZM12.222 7C12.8356 7 13.3331 7.44772 13.3331 8V14C13.3331 14.5523 12.8356 15 12.222 15C11.6083 15 11.1108 14.5523 11.1108 14V8C11.1108 7.44772 11.6083 7 12.222 7ZM12.2222 0C12.8359 0 13.3333 0.447715 13.3333 1C13.3333 1.55228 12.8359 2 12.2222 2H7.77778C7.16413 2 6.66667 1.55228 6.66667 1C6.66667 0.447715 7.16413 0 7.77778 0H12.2222Z" fill="#818283"/>
</svg>
