<svg width="12" height="14" viewBox="0 0 12 14" fill="none" xmlns="http://www.w3.org/2000/svg">
<path d="M4.64179 11.8185C4.97507 11.748 7.00586 11.748 7.33913 11.8185C7.62404 11.8843 7.93214 12.0381 7.93214 12.3738C7.91557 12.6934 7.72807 12.9768 7.469 13.1567C7.13307 13.4186 6.73884 13.5844 6.32672 13.6442C6.0988 13.6737 5.87485 13.6744 5.65487 13.6442C5.24209 13.5844 4.84786 13.4186 4.51259 13.156C4.25286 12.9768 4.06535 12.6934 4.04879 12.3738C4.04879 12.0381 4.35689 11.8843 4.64179 11.8185ZM6.02982 0.333252C7.41659 0.333252 8.83317 0.991265 9.67464 2.08303C10.2206 2.78603 10.4711 3.48835 10.4711 4.58012V4.86414C10.4711 5.70143 10.6924 6.19494 11.1793 6.76365C11.5484 7.18263 11.6663 7.72045 11.6663 8.30393C11.6663 8.88674 11.4749 9.44001 11.0912 9.8892C10.589 10.4277 9.8807 10.7715 9.15783 10.8312C8.1103 10.9205 7.06211 10.9957 6.00001 10.9957C4.93724 10.9957 3.88971 10.9508 2.84218 10.8312C2.11865 10.7715 1.41035 10.4277 0.908785 9.8892C0.525154 9.44001 0.333008 8.88674 0.333008 8.30393C0.333008 7.72045 0.451609 7.18263 0.82 6.76365C1.32223 6.19494 1.52895 5.70143 1.52895 4.86414V4.58012C1.52895 3.45881 1.80856 2.7256 2.38434 2.00783C3.24038 0.96105 4.61258 0.333252 5.97019 0.333252H6.02982Z" fill="#5661F6"/>
</svg>
