<svg width="50" height="50" viewBox="0 0 50 50" fill="none" xmlns="http://www.w3.org/2000/svg">
<path d="M8.23684 4.02315C7.02075 4.02315 5.85447 4.50624 4.99456 5.36615C4.13466 6.22605 3.65157 7.39233 3.65157 8.60842V14.7221C3.65157 15.1275 3.49054 15.5162 3.20391 15.8029C2.91727 16.0895 2.52851 16.2505 2.12315 16.2505C1.71779 16.2505 1.32903 16.0895 1.04239 15.8029C0.755757 15.5162 0.594727 15.1275 0.594727 14.7221V8.60842C0.594727 6.5816 1.39988 4.6378 2.83305 3.20463C4.26622 1.77146 6.21002 0.966309 8.23684 0.966309H14.3505C14.7559 0.966309 15.1446 1.12734 15.4313 1.41397C15.7179 1.70061 15.8789 2.08937 15.8789 2.49473C15.8789 2.90009 15.7179 3.28885 15.4313 3.57549C15.1446 3.86212 14.7559 4.02315 14.3505 4.02315H8.23684ZM8.23684 46.819C7.02075 46.819 5.85447 46.3359 4.99456 45.476C4.13466 44.6161 3.65157 43.4498 3.65157 42.2337V36.12C3.65157 35.7146 3.49054 35.3259 3.20391 35.0393C2.91727 34.7526 2.52851 34.5916 2.12315 34.5916C1.71779 34.5916 1.32903 34.7526 1.04239 35.0393C0.755757 35.3259 0.594727 35.7146 0.594727 36.12V42.2337C0.594727 44.2605 1.39988 46.2043 2.83305 47.6375C4.26622 49.0707 6.21002 49.8758 8.23684 49.8758H14.3505C14.7559 49.8758 15.1446 49.7148 15.4313 49.4281C15.7179 49.1415 15.8789 48.7528 15.8789 48.3474C15.8789 47.942 15.7179 47.5533 15.4313 47.2666C15.1446 46.98 14.7559 46.819 14.3505 46.819H8.23684ZM46.4474 8.60842C46.4474 7.39233 45.9643 6.22605 45.1044 5.36615C44.2445 4.50624 43.0782 4.02315 41.8621 4.02315H35.7484C35.3431 4.02315 34.9543 3.86212 34.6677 3.57549C34.381 3.28885 34.22 2.90009 34.22 2.49473C34.22 2.08937 34.381 1.70061 34.6677 1.41397C34.9543 1.12734 35.3431 0.966309 35.7484 0.966309H41.8621C43.8889 0.966309 45.8327 1.77146 47.2659 3.20463C48.6991 4.6378 49.5042 6.5816 49.5042 8.60842V14.7221C49.5042 15.1275 49.3432 15.5162 49.0566 15.8029C48.7699 16.0895 48.3812 16.2505 47.9758 16.2505C47.5704 16.2505 47.1817 16.0895 46.895 15.8029C46.6084 15.5162 46.4474 15.1275 46.4474 14.7221V8.60842ZM41.8621 46.819C43.0782 46.819 44.2445 46.3359 45.1044 45.476C45.9643 44.6161 46.4474 43.4498 46.4474 42.2337V36.12C46.4474 35.7146 46.6084 35.3259 46.895 35.0393C47.1817 34.7526 47.5704 34.5916 47.9758 34.5916C48.3812 34.5916 48.7699 34.7526 49.0566 35.0393C49.3432 35.3259 49.5042 35.7146 49.5042 36.12V42.2337C49.5042 44.2605 48.6991 46.2043 47.2659 47.6375C45.8327 49.0707 43.8889 49.8758 41.8621 49.8758H35.7484C35.3431 49.8758 34.9543 49.7148 34.6677 49.4281C34.381 49.1415 34.22 48.7528 34.22 48.3474C34.22 47.942 34.381 47.5533 34.6677 47.2666C34.9543 46.98 35.3431 46.819 35.7484 46.819H41.8621ZM28.8705 26.3626C28.8705 28.4412 27.1587 30.1225 25.0495 30.1225C24.5517 30.1265 24.058 30.0325 23.5966 29.8457C23.1351 29.6589 22.715 29.3831 22.3602 29.0339C22.0054 28.6848 21.7228 28.2692 21.5286 27.8108C21.3344 27.3525 21.2324 26.8603 21.2284 26.3626C21.2284 24.2839 22.9403 22.5996 25.0495 22.5996C27.1587 22.5996 28.8705 24.287 28.8705 26.3626ZM9.76526 22.5996V33.8855C9.76526 35.9672 11.4771 37.6484 13.5863 37.6484H36.5126C38.6219 37.6484 40.3337 35.9641 40.3337 33.8885V22.5965C40.3337 20.5179 38.6219 18.8366 36.5126 18.8366H32.6916L30.0046 14.8658C29.6524 14.3478 29.1782 13.9245 28.6238 13.6329C28.0694 13.3413 27.4519 13.1905 26.8255 13.1937H23.2734C21.9957 13.1937 20.8035 13.8234 20.0943 14.8688L17.4074 18.8366H13.5863C11.4771 18.8366 9.76526 20.524 9.76526 22.5996ZM25.0495 18.8366C29.2679 18.8366 32.6916 22.2022 32.6916 26.3565C32.6916 30.5138 29.2679 33.8824 25.0495 33.8824C20.831 33.8824 17.4074 30.5138 17.4074 26.3595C17.4074 22.2022 20.831 18.8336 25.0495 18.8336" fill="white"/>
</svg>
