<svg width="24" height="24" viewBox="0 0 24 24" fill="none" xmlns="http://www.w3.org/2000/svg">
<path fill-rule="evenodd" clip-rule="evenodd" d="M16.5444 0.919673C14.8294 0.868013 13.1596 1.47496 11.8781 2.61589C10.5966 1.47496 8.92681 0.868013 7.21175 0.919673C5.18183 0.912735 3.25556 1.81552 1.96212 3.38C0.850359 4.72858 -0.313895 7.17024 0.457219 11.1506C1.68913 17.5039 10.9168 22.7185 11.3065 22.9332C11.6596 23.1301 12.0896 23.1301 12.4427 22.9332C12.8359 22.715 22.0636 17.5004 23.292 11.1506C24.0631 7.17024 22.9 4.73441 21.7882 3.38C20.4963 1.81683 18.5724 0.914153 16.5444 0.919673ZM20.782 10.7494C19.9347 15.1245 13.7786 19.1949 11.8816 20.3572C9.98464 19.1949 3.82853 15.1257 2.98125 10.7494C2.39782 7.74014 3.1962 5.99214 3.96955 5.05502C4.7984 4.05495 6.03133 3.47832 7.33022 3.48329C8.72265 3.37886 10.0677 4.01316 10.8729 5.15396C11.0703 5.51883 11.4508 5.74722 11.8657 5.7499H11.8794C12.2914 5.74705 12.6706 5.52409 12.8733 5.16533C13.6776 4.01548 15.0294 3.37592 16.4285 3.48329C17.729 3.47696 18.9639 4.05371 19.7937 5.05502C20.5648 5.99214 21.3632 7.74014 20.7797 10.7494H20.782Z" fill="#808080"/>
</svg>
