<svg width="52" height="52" viewBox="0 0 52 52" fill="none" xmlns="http://www.w3.org/2000/svg">
<g clip-path="url(#clip0_278_36646)">
<path d="M42.8665 4.92514C42.8665 4.54918 42.7172 4.18861 42.4513 3.92277C42.1855 3.65692 41.8249 3.50757 41.449 3.50757H10.2623C9.88634 3.50757 9.52577 3.65692 9.25993 3.92277C8.99408 4.18861 8.84473 4.54918 8.84473 4.92514V6.34272H42.8665V4.92514Z" fill="#5661F6"/>
<path d="M45.6735 10.5953C45.6735 10.2193 45.5242 9.85878 45.2583 9.59293C44.9925 9.32709 44.6319 9.17773 44.256 9.17773H7.39902C7.02306 9.17773 6.66249 9.32709 6.39664 9.59293C6.1308 9.85878 5.98145 10.2193 5.98145 10.5953V12.0129H45.6735V10.5953Z" fill="#5661F6"/>
<path d="M45.6729 14.8481H5.64063C4.93381 14.8481 4.25595 15.1289 3.75616 15.6287C3.25637 16.1285 2.97559 16.8064 2.97559 17.5132V43.3698C2.97559 44.0766 3.25637 44.7544 3.75616 45.2542C4.25595 45.754 4.93381 46.0348 5.64063 46.0348H45.6729C46.3798 46.0348 47.0576 45.754 47.5574 45.2542C48.0572 44.7544 48.338 44.0766 48.338 43.3698V17.5132C48.338 16.8064 48.0572 16.1285 47.5574 15.6287C47.0576 15.1289 46.3798 14.8481 45.6729 14.8481ZM12.2749 19.7388C13.116 19.7388 13.9382 19.9882 14.6376 20.4555C15.3369 20.9228 15.882 21.587 16.2039 22.3641C16.5258 23.1411 16.61 23.9962 16.4459 24.8212C16.2818 25.6461 15.8768 26.4039 15.282 26.9986C14.6873 27.5934 13.9295 27.9984 13.1045 28.1625C12.2796 28.3266 11.4245 28.2424 10.6474 27.9205C9.87035 27.5986 9.20616 27.0535 8.73887 26.3542C8.27157 25.6548 8.02215 24.8326 8.02215 23.9915C8.02215 22.8636 8.47021 21.7819 9.26775 20.9844C10.0653 20.1868 11.147 19.7388 12.2749 19.7388ZM42.6677 40.3645H8.64589L19.221 29.7752C19.4095 29.5882 19.6643 29.4833 19.9298 29.4833C20.1953 29.4833 20.4501 29.5882 20.6386 29.7752L25.8552 34.9919L33.0424 27.6063C33.2309 27.4193 33.4856 27.3144 33.7511 27.3144C34.0167 27.3144 34.2714 27.4193 34.4599 27.6063L42.6677 35.8141V40.3645Z" fill="#5661F6"/>
</g>
<defs>
<clipPath id="clip0_278_36646">
<rect width="51.0327" height="51.0327" fill="white" transform="translate(0.140625 0.672363)"/>
</clipPath>
</defs>
</svg>
