<svg width="25" height="22" viewBox="0 0 25 22" fill="none" xmlns="http://www.w3.org/2000/svg">
<path fill-rule="evenodd" clip-rule="evenodd" d="M12.6252 4.78046L21.9556 13.0737L21.9561 17.9876C21.9561 19.8833 20.4569 21.4283 18.5815 21.4976L18.4501 21.5H16.1108C15.4947 21.5 14.99 21.0224 14.9453 20.4166L14.9421 20.3292V17.6196C14.9421 16.37 13.9598 15.3498 12.7253 15.2891L12.6088 15.2863C11.3553 15.2863 10.335 16.2686 10.2744 17.5031L10.2715 17.6196V20.3292C10.2715 20.9464 9.79476 21.4521 9.19006 21.4968L9.10284 21.5H6.76354C4.87125 21.5 3.32911 19.9981 3.25999 18.1192L3.25741 17.9876V13.107L12.6252 4.78046ZM11.8355 0.791222C12.2507 0.425767 12.86 0.40427 13.2981 0.72673L13.3781 0.791222L23.896 10.1577C24.3795 10.5848 24.4266 11.3234 24.0012 11.8086C23.6389 12.2203 23.0518 12.3161 22.5865 12.0739L13.4002 3.90846L13.32 3.8432C12.9081 3.53732 12.3422 3.53733 11.9303 3.84323L11.8501 3.90848L2.77066 11.9796C2.28926 12.2984 1.63845 12.218 1.24983 11.7756C0.858283 11.3298 0.864487 10.6663 1.24987 10.2285L1.3176 10.1577L11.8355 0.791222Z" fill="#5661F6"/>
</svg>
