<svg width="16" height="15" viewBox="0 0 16 15" fill="none" xmlns="http://www.w3.org/2000/svg">
<path d="M7.81849 9.95957C8.56966 9.95957 9.29007 9.67414 9.82123 9.16607C10.3524 8.658 10.6508 7.96892 10.6508 7.2504C10.6508 6.53189 10.3524 5.8428 9.82123 5.33474C9.29007 4.82667 8.56966 4.54124 7.81849 4.54124C7.06732 4.54124 6.34691 4.82667 5.81575 5.33474C5.28459 5.8428 4.98618 6.53189 4.98618 7.2504C4.98618 7.96892 5.28459 8.658 5.81575 9.16607C6.34691 9.67414 7.06732 9.95957 7.81849 9.95957ZM12.674 13.4429C13.1033 13.4429 13.5149 13.2798 13.8184 12.9895C14.122 12.6992 14.2925 12.3054 14.2925 11.8948C14.2925 11.4843 14.122 11.0905 13.8184 10.8002C13.5149 10.5099 13.1033 10.3468 12.674 10.3468C12.2448 10.3468 11.8332 10.5099 11.5297 10.8002C11.2261 11.0905 11.0556 11.4843 11.0556 11.8948C11.0556 12.3054 11.2261 12.6992 11.5297 12.9895C11.8332 13.2798 12.2448 13.4429 12.674 13.4429ZM4.58166 12.2818C4.04542 12.2804 3.53156 12.076 3.15238 11.7133C2.7732 11.3507 2.55954 10.8591 2.5581 10.3462V8.79846H0.535156V10.3462C0.534997 10.8545 0.639554 11.3579 0.842853 11.8276C1.04615 12.2973 1.34421 12.724 1.71999 13.0835C2.09578 13.4429 2.54192 13.728 3.03294 13.9225C3.52395 14.1169 4.05022 14.2169 4.58166 14.2168H6.19977V12.2818H4.58166ZM2.5581 4.15401C2.5581 3.08927 3.46852 2.21844 4.58166 2.21844H6.19977V0.283447H4.58166C4.05022 0.283295 3.52395 0.383306 3.03294 0.577766C2.54192 0.772226 2.09578 1.05732 1.71999 1.41677C1.34421 1.77621 1.04615 2.20296 0.842853 2.67263C0.639554 3.1423 0.534997 3.64568 0.535156 4.15401V5.70177H2.5581V4.15401ZM11.0553 2.21844C12.1685 2.21844 13.0789 3.08927 13.0789 4.15401V5.70177H15.1018V4.15401C15.102 3.64568 14.9974 3.1423 14.7941 2.67263C14.5908 2.20296 14.2928 1.77621 13.917 1.41677C13.5412 1.05732 13.0951 0.772226 12.604 0.577766C12.113 0.383306 11.5868 0.283295 11.0553 0.283447H9.43721V2.21844H11.0553Z" fill="white"/>
</svg>
