<svg width="24" height="20" viewBox="0 0 24 20" fill="none" xmlns="http://www.w3.org/2000/svg">
<path fill-rule="evenodd" clip-rule="evenodd" d="M19.8333 0C21.7663 0 23.3333 1.567 23.3333 3.5V12.8333C23.3333 14.7663 21.7663 16.3333 19.8333 16.3333H11.2778C11.0253 16.3333 10.7797 16.4152 10.5778 16.5667L6.53333 19.6C5.76422 20.1768 4.66667 19.6281 4.66667 18.6667V16.3333H3.5C1.567 16.3333 0 14.7663 0 12.8333V3.5C0 1.567 1.567 0 3.5 0H19.8333ZM19.8333 2.33333H3.5C2.85567 2.33333 2.33333 2.85567 2.33333 3.5V12.8333C2.33333 13.4777 2.85567 14 3.5 14H5.83333C6.47767 14 7 14.5223 7 15.1667V16.3333L9.17778 14.7C9.78361 14.2456 10.5205 14 11.2778 14H19.8333C20.4777 14 21 13.4777 21 12.8333V3.5C21 2.85567 20.4777 2.33333 19.8333 2.33333ZM7 7C7.64433 7 8.16667 7.52233 8.16667 8.16667C8.16667 8.811 7.64433 9.33333 7 9.33333C6.35567 9.33333 5.83333 8.811 5.83333 8.16667C5.83333 7.52233 6.35567 7 7 7ZM11.6667 7C12.311 7 12.8333 7.52233 12.8333 8.16667C12.8333 8.811 12.311 9.33333 11.6667 9.33333C11.0223 9.33333 10.5 8.811 10.5 8.16667C10.5 7.52233 11.0223 7 11.6667 7ZM16.3333 7C16.9777 7 17.5 7.52233 17.5 8.16667C17.5 8.811 16.9777 9.33333 16.3333 9.33333C15.689 9.33333 15.1667 8.811 15.1667 8.16667C15.1667 7.52233 15.689 7 16.3333 7Z" fill="#808080"/>
</svg>
