<svg width="128" height="128" viewBox="0 0 128 128" fill="none" xmlns="http://www.w3.org/2000/svg">
<rect width="128" height="128" rx="64" fill="#4F46E5"/>
<path d="M64 77.5C69.0054 77.5 73.8984 76.0191 78.0602 73.2446C82.222 70.4701 85.4658 66.5266 87.3813 61.9128C89.2967 57.2989 89.7979 52.222 88.8214 47.324C87.8449 42.426 85.4346 37.9268 81.8952 34.3956C78.3559 30.8643 73.8465 28.4595 68.9373 27.4852C64.0281 26.5109 58.9395 27.0109 54.3152 28.9221C49.6908 30.8332 45.7383 34.0695 42.9574 38.2219C40.1766 42.3742 38.6923 47.256 38.6923 52.25C38.6923 58.9467 41.3586 65.3692 46.1048 70.1045C50.8509 74.8397 57.288 77.5 64 77.5ZM64 84.7143C48.3138 84.7143 17 94.3814 17 113.571V128H111V113.571C111 94.3814 79.6862 84.7143 64 84.7143Z" fill="white"/>
</svg>
