<svg width="35" height="34" viewBox="0 0 35 34" fill="none" xmlns="http://www.w3.org/2000/svg">
<path d="M14.768 6.30261C11.9634 6.30261 4.23617 13.0349 0.724415 16.4011C-0.215057 18.9283 1.89789 19.9787 3.0731 20.1919C8.3286 20.1919 17.1063 8.82983 17.1063 7.56622C17.1063 6.56088 15.5393 6.30261 14.768 6.30261Z" fill="url(#paint0_linear_278_36676)" fill-opacity="0.5"/>
<path d="M11.2585 6.30261C6.11566 6.81742 2.87258 10.7192 1.89844 12.6207C4.81739 13.2481 5.9926 11.9845 7.74848 10.0934C9.15595 8.58543 14.1879 7.35475 16.5261 6.94048C14.8001 6.52883 13.0329 6.31483 11.2585 6.30261Z" fill="url(#paint1_linear_278_36676)" fill-opacity="0.5"/>
<path d="M4.81912 13.8843C2.47911 13.8843 1.89844 13.035 1.89844 12.6207H4.24712C5.41019 12.6207 7.28914 10.3067 8.32915 9.46777C10.6778 7.56629 13.5968 6.94055 16.5261 6.94055C13.5968 9.25457 7.16607 13.8739 4.81739 13.8739L4.81912 13.8843Z" fill="#D2ADFD" fill-opacity="0.5"/>
<path d="M3.06104 18.9284C0.724491 18.9284 0.533823 17.2505 0.724491 16.4011C0.466222 17.3285 0.0190196 18.996 0.142087 20.192C0.287688 21.7346 1.22716 22.7192 3.06104 22.7192C7.1656 22.7192 18.9073 13.4146 21.2438 13.4146C23.1106 13.4146 23.3464 14.0854 23.5474 14.5118C23.1557 13.035 21.7916 10.0935 19.455 10.0935C16.5257 10.0935 5.99039 18.9284 3.06104 18.9284Z" fill="url(#paint2_linear_278_36676)" fill-opacity="0.5"/>
<path d="M21.792 16.401C14.3005 18.4255 7.74671 26.0852 5.41016 29.6628C6.54153 30.051 7.72609 30.262 8.92191 30.2885C14.1774 30.2885 24.1285 22.0811 24.1285 18.9282C24.1285 16.401 22.5633 16.1999 21.7816 16.401H21.792Z" fill="url(#paint3_linear_278_36676)" fill-opacity="0.5"/>
<path d="M3.06116 29.6628C1.66408 29.6628 0.925677 31.7654 0.724609 32.8175C0.724609 34.0794 5.99051 33.4415 6.57292 32.8175C7.16572 32.1797 4.81704 29.6628 3.06116 29.6628Z" fill="url(#paint4_linear_278_36676)" fill-opacity="0.5"/>
<path d="M21.2112 13.2481C15.0924 13.4145 6.00278 22.7191 3.06303 22.7191C1.89822 22.7191 0.723016 21.4537 0.142345 20.1919C-0.438325 22.7191 0.724749 25.2463 4.23651 25.2463C7.74653 25.2463 15.3507 20.8176 19.4431 18.3025C22.7313 16.2884 23.9394 17.0372 24.1405 17.6647L23.5477 14.51C22.9653 13.2481 22.3742 13.2134 21.199 13.2481H21.2112Z" fill="url(#paint5_linear_278_36676)" fill-opacity="0.5"/>
<path d="M5.66797 29.8067C6.19317 30.0321 7.48971 30.2886 10.0949 30.2886C14.2099 30.2886 18.8969 28.3888 22.419 24.6084C25.9412 20.8176 28.8705 12.6206 32.3927 12.6206C35.9166 12.6206 35.9166 23.3569 28.2899 29.025C25.3484 31.5522 20.1934 32.8158 15.9658 32.8158C11.9409 32.8158 7.57985 30.9039 5.67837 29.8085L5.66797 29.8067Z" fill="url(#paint6_linear_278_36676)" fill-opacity="0.5"/>
<path d="M21.9701 6.81734C20.2488 5.812 20.5279 4.69226 20.8954 4.26932C21.9701 2.99358 25.2027 4.26932 26.8234 7.45521C28.4354 10.6411 27.3608 14.4666 26.2757 15.1045C25.201 15.7406 24.1281 8.09135 21.9701 6.82774V6.81734Z" fill="url(#paint7_linear_278_36676)" fill-opacity="0.5"/>
<path d="M25.4818 3.03695C23.7606 2.00907 24.0396 0.913598 24.4071 0.488928C25.4818 -0.786813 28.7145 0.488928 30.3351 3.67482C31.9454 6.86244 30.8725 10.6862 29.7874 11.3241C28.7127 11.9619 27.6398 4.31095 25.4818 3.03695Z" fill="url(#paint8_linear_278_36676)" fill-opacity="0.5"/>
<defs>
<linearGradient id="paint0_linear_278_36676" x1="32.2401" y1="1.53938" x2="-1.7612" y2="23.0797" gradientUnits="userSpaceOnUse">
<stop stop-color="#3F12B7"/>
<stop offset="1" stop-color="#2F0FD2"/>
</linearGradient>
<linearGradient id="paint1_linear_278_36676" x1="17.3339" y1="0.00017134" x2="13.5032" y2="22.3499" gradientUnits="userSpaceOnUse">
<stop stop-color="#C28EFA"/>
<stop offset="1" stop-color="#E6C2FF"/>
</linearGradient>
<linearGradient id="paint2_linear_278_36676" x1="29.4703" y1="1.66425" x2="-4.17221" y2="11.4369" gradientUnits="userSpaceOnUse">
<stop stop-color="#87CAFF"/>
<stop offset="1" stop-color="#5E7EF5"/>
</linearGradient>
<linearGradient id="paint3_linear_278_36676" x1="32.2233" y1="1.53926" x2="-1.77802" y2="23.0813" gradientUnits="userSpaceOnUse">
<stop stop-color="#004F9E"/>
<stop offset="1" stop-color="#02628A"/>
</linearGradient>
<linearGradient id="paint4_linear_278_36676" x1="32.2282" y1="1.44919" x2="-1.77314" y2="23.0415" gradientUnits="userSpaceOnUse">
<stop stop-color="#49D2E5"/>
<stop offset="1" stop-color="#58FCCC"/>
</linearGradient>
<linearGradient id="paint5_linear_278_36676" x1="32.1295" y1="1.80108" x2="-0.887262" y2="10.6429" gradientUnits="userSpaceOnUse">
<stop stop-color="#BBE9F9"/>
<stop offset="1" stop-color="#607EFF"/>
</linearGradient>
<linearGradient id="paint6_linear_278_36676" x1="31.9489" y1="3.13921" x2="0.656869" y2="19.8868" gradientUnits="userSpaceOnUse">
<stop stop-color="#D2FCD2"/>
<stop offset="1" stop-color="#53DBED"/>
</linearGradient>
<linearGradient id="paint7_linear_278_36676" x1="6.66636" y1="1.44224" x2="20.4863" y2="33.9633" gradientUnits="userSpaceOnUse">
<stop stop-color="#C4F4E4"/>
<stop offset="1" stop-color="#84FFBB"/>
</linearGradient>
<linearGradient id="paint8_linear_278_36676" x1="25.4818" y1="0.488929" x2="31.6196" y2="9.13139" gradientUnits="userSpaceOnUse">
<stop stop-color="#C4F4E4"/>
<stop offset="1" stop-color="#84FFBB"/>
</linearGradient>
</defs>
</svg>
