<svg width="30" height="24" viewBox="0 0 30 24" fill="none" xmlns="http://www.w3.org/2000/svg">
<g filter="url(#filter0_i_607_12980)">
<path d="M25.7548 0.53833C25.1942 0.53833 24.7244 0.918101 24.6047 1.42691C24.0632 1.65318 23.6471 2.07619 23.4054 2.57741C23.0743 3.26375 22.9739 4.08475 22.9543 4.98158C22.9212 6.50458 23.1428 8.26742 23.2399 9.81463C23.1276 10.7115 22.9332 11.5586 22.6688 12.3468C22.8478 13.4436 22.8824 14.5782 22.728 15.7218C22.4119 18.0632 20.4266 19.4604 18.3028 19.8765C16.3462 20.2599 14.1869 19.9022 12.7788 18.6898C10.5887 20.0725 7.94857 20.4374 5.695 19.7046C3.04515 20.6982 0.998154 22.079 0.172851 23.4617L20.4454 23.4617C26.943 23.4617 29.1391 16.8638 27.4661 9.66945L27.4622 9.67312C27.1024 7.17477 27.524 5.36478 28.4016 4.23617C28.528 4.28022 28.6612 4.30287 28.7955 4.30313C29.4467 4.30313 29.9732 3.79029 29.9732 3.15832C29.9732 2.52647 29.4467 2.01362 28.7955 2.01362C28.1443 2.01362 27.6157 2.52647 27.6157 3.15844C27.6157 3.22063 27.6217 3.28038 27.6315 3.33995C26.2928 4.8789 25.8131 7.3583 26.4184 10.5504C25.7695 10.8462 25.0854 10.7265 24.4373 10.1377C24.3563 8.4252 24.0993 6.51302 24.132 5.00647C24.1499 4.18669 24.2625 3.49473 24.4708 3.06298C24.6031 2.78839 24.7368 2.61386 24.9415 2.51063C25.1529 2.70608 25.4396 2.82784 25.7548 2.82784C26.406 2.82784 26.9325 2.31499 26.9325 1.68302C26.9325 1.05117 26.406 0.53833 25.7548 0.53833ZM11.1244 2.49143C10.986 2.49081 10.8473 2.49363 10.7089 2.49907C8.49419 2.58591 6.28858 3.44544 4.46599 5.0217C0.890895 8.11356 0.720743 13.8641 3.88703 17.3214C6.32261 19.6637 10.621 19.449 13.4345 16.7194C15.8111 14.4194 15.9937 10.9111 13.9878 8.95278C12.5951 7.59331 10.1439 7.43511 8.57801 9.02543C8.22926 9.37952 8.01209 10.0051 8.01676 10.6709C8.02155 11.3367 8.24697 12.0164 8.61746 12.4482C8.84389 12.712 9.28704 12.9665 9.78332 13.0884C10.0787 13.161 10.3881 13.185 10.6715 13.1648C11.5031 13.1509 12.3199 12.6138 12.3199 11.5366C12.3199 10.5753 11.6687 10.0427 10.9374 9.92948C11.4272 9.88686 11.869 9.96728 12.2352 10.1625C12.7715 10.4486 13.098 10.9541 13.21 11.4793C13.4318 12.5186 12.8648 13.7497 11.6089 14.1299L11.6109 14.1337C11.6007 14.1374 11.5896 14.1378 11.5794 14.1414L11.5715 14.1452C10.9053 14.3748 10.1723 14.3634 9.49387 14.1968C8.80211 14.027 8.15546 13.6973 7.71155 13.1801C7.11804 12.4887 6.84542 11.5765 6.83911 10.6805C6.83281 9.78442 7.09182 8.87927 7.72529 8.23611C9.74381 6.18621 12.9725 6.34032 14.8229 8.1464C17.3424 10.606 17.0463 14.8338 14.2656 17.5259C14.1 17.6866 13.9263 17.837 13.7516 17.9826C14.824 18.7593 16.5258 19.0593 18.0704 18.7567C19.8511 18.4077 21.3175 17.3705 21.5601 15.5727C22.1583 11.1418 19.4039 6.56206 17.007 4.61074C15.2637 3.19134 13.2004 2.5006 11.1244 2.49143Z" fill="white"/>
</g>
<defs>
<filter id="filter0_i_607_12980" x="0.172852" y="0.53833" width="29.8008" height="26.9233" filterUnits="userSpaceOnUse" color-interpolation-filters="sRGB">
<feFlood flood-opacity="0" result="BackgroundImageFix"/>
<feBlend mode="normal" in="SourceGraphic" in2="BackgroundImageFix" result="shape"/>
<feColorMatrix in="SourceAlpha" type="matrix" values="0 0 0 0 0 0 0 0 0 0 0 0 0 0 0 0 0 0 127 0" result="hardAlpha"/>
<feOffset dy="4"/>
<feGaussianBlur stdDeviation="2"/>
<feComposite in2="hardAlpha" operator="arithmetic" k2="-1" k3="1"/>
<feColorMatrix type="matrix" values="0 0 0 0 1 0 0 0 0 1 0 0 0 0 1 0 0 0 1 0"/>
<feBlend mode="normal" in2="shape" result="effect1_innerShadow_607_12980"/>
</filter>
</defs>
</svg>
