<svg width="34" height="12" viewBox="0 0 34 12" fill="none" xmlns="http://www.w3.org/2000/svg">
<path d="M7.095 8.255C7.095 9.085 6.695 9.78 5.895 10.34C5.105 10.9 4.185 11.18 3.135 11.18C2.315 11.18 1.62 11.005 1.05 10.655C0.49 10.305 0.21 9.97 0.21 9.65C0.37 9.26 0.675 8.84 1.125 8.39C1.575 7.94 1.99 7.705 2.37 7.685C2.62 7.795 2.85 8.07 3.06 8.51C3.28 8.94 3.455 9.44 3.585 10.01C4.125 9.99 4.395 9.685 4.395 9.095C4.395 8.705 4.245 8.23 3.945 7.67C3.655 7.1 3.335 6.57 2.985 6.08C2.635 5.59 2.31 5.045 2.01 4.445C1.72 3.845 1.575 3.32 1.575 2.87C1.575 2.13 1.915 1.525 2.595 1.055C3.275 0.584999 4.03 0.349999 4.86 0.349999C5.7 0.349999 6.35 0.529999 6.81 0.89C7.28 1.25 7.515 1.665 7.515 2.135C7.515 2.525 7.435 2.84 7.275 3.08C7.115 3.31 6.985 3.49 6.885 3.62C6.795 3.74 6.67 3.87 6.51 4.01C6.21 4.27 5.98 4.46 5.82 4.58L5.595 4.745C6.185 5.475 6.63 6.325 6.93 7.295C7.04 7.645 7.095 7.965 7.095 8.255ZM6.315 2.24C6.315 1.77 6.015 1.535 5.415 1.535C5.065 1.535 4.78 1.61 4.56 1.76C4.35 1.91 4.245 2.1 4.245 2.33C4.245 2.55 4.335 2.82 4.515 3.14C4.705 3.46 4.855 3.685 4.965 3.815C5.205 3.695 5.49 3.475 5.82 3.155C6.15 2.835 6.315 2.53 6.315 2.24ZM8.39719 11.09H8.14219C8.14219 10.47 8.28219 9.53 8.56219 8.27C8.85219 7.01 8.99719 6.285 8.99719 6.095C8.99719 5.905 8.95219 5.72 8.86219 5.54C8.77219 5.36 8.68219 5.225 8.59219 5.135L8.45719 5L8.48719 4.775C9.07719 4.585 10.1072 4.49 11.5772 4.49C11.6772 4.72 11.7472 4.96 11.7872 5.21C12.6972 4.65 13.4622 4.37 14.0822 4.37C14.5022 4.37 14.8322 4.51 15.0722 4.79C15.3122 5.06 15.4322 5.39 15.4322 5.78C15.4322 6.16 15.3222 6.775 15.1022 7.625C14.8822 8.475 14.7722 9.03 14.7722 9.29C14.7722 9.54 14.8072 9.665 14.8772 9.665L15.6722 9.455L15.9422 10.205C15.6222 10.445 15.2022 10.67 14.6822 10.88C14.1722 11.08 13.7022 11.18 13.2722 11.18C12.4222 11.18 11.9972 10.74 11.9972 9.86C11.9972 9.48 12.1022 8.86 12.3122 8C12.5222 7.14 12.6272 6.605 12.6272 6.395C12.6272 6.175 12.5572 6.065 12.4172 6.065C12.2372 6.065 11.9972 6.165 11.6972 6.365C11.6572 6.545 11.5572 6.98 11.3972 7.67C11.0772 9.12 10.9172 10.165 10.9172 10.805C10.4272 10.995 9.58719 11.09 8.39719 11.09ZM23.6929 4.925C23.4829 5.575 23.3029 6.35 23.1529 7.25C23.0029 8.14 22.9279 8.765 22.9279 9.125C22.9279 9.475 22.9829 9.65 23.0929 9.65L23.8429 9.44L24.1129 10.19C23.7929 10.44 23.3829 10.67 22.8829 10.88C22.3929 11.08 21.9579 11.18 21.5779 11.18C20.9279 11.18 20.5179 10.9 20.3479 10.34C19.5579 10.9 18.8579 11.18 18.2479 11.18C17.6479 11.18 17.1829 10.96 16.8529 10.52C16.5229 10.08 16.3579 9.45 16.3579 8.63C16.3579 7.5 16.6479 6.505 17.2279 5.645C17.8079 4.785 18.5729 4.355 19.5229 4.355C20.0429 4.355 20.5729 4.5 21.1129 4.79C21.1929 4.61 21.2579 4.48 21.3079 4.4C22.0279 4.4 22.8229 4.575 23.6929 4.925ZM19.1779 8.45C19.1779 8.95 19.2129 9.265 19.2829 9.395C19.3529 9.525 19.4829 9.59 19.6729 9.59C19.8629 9.59 20.0479 9.515 20.2279 9.365C20.2679 8.205 20.4579 6.99 20.7979 5.72C20.6479 5.63 20.4729 5.585 20.2729 5.585C20.0829 5.585 19.9079 5.695 19.7479 5.915C19.5979 6.135 19.4829 6.41 19.4029 6.74C19.2529 7.37 19.1779 7.94 19.1779 8.45ZM27.9266 5.375C27.9266 5.815 27.8016 6.5 27.5516 7.43C27.3016 8.35 27.1766 8.95 27.1766 9.23C27.1766 9.51 27.2316 9.65 27.3416 9.65C27.4516 9.65 27.6516 9.6 27.9416 9.5L28.0766 9.44L28.3466 10.19C28.0066 10.45 27.5816 10.68 27.0716 10.88C26.5716 11.08 26.1166 11.18 25.7066 11.18C25.2966 11.18 24.9716 11.065 24.7316 10.835C24.5016 10.605 24.3866 10.275 24.3866 9.845C24.3866 9.405 24.5066 8.74 24.7466 7.85C24.9966 6.95 25.1216 6.38 25.1216 6.14C25.1216 5.77 24.9916 5.42 24.7316 5.09L24.6116 4.925L24.6566 4.67C25.1766 4.51 26.1866 4.43 27.6866 4.43C27.8466 4.61 27.9266 4.925 27.9266 5.375ZM26.8016 3.26C26.3516 3.26 25.9966 3.14 25.7366 2.9C25.4866 2.66 25.3616 2.355 25.3616 1.985C25.3616 1.605 25.5166 1.29 25.8266 1.04C26.1466 0.779999 26.5316 0.649999 26.9816 0.649999C27.4316 0.649999 27.7816 0.754999 28.0316 0.965C28.2816 1.175 28.4066 1.47 28.4066 1.85C28.4066 2.23 28.2516 2.56 27.9416 2.84C27.6416 3.12 27.2616 3.26 26.8016 3.26ZM32.8887 10.16C32.5687 10.44 32.1487 10.68 31.6287 10.88C31.1087 11.08 30.6337 11.18 30.2037 11.18C29.7837 11.18 29.4387 11.06 29.1687 10.82C28.8987 10.57 28.7637 10.215 28.7637 9.755C28.7637 9.295 29.0137 8.015 29.5137 5.915C30.0237 3.805 30.2787 2.24 30.2787 1.22C30.2787 1 30.2487 0.72 30.1887 0.38C31.1287 0.12 32.0387 -0.0100004 32.9187 -0.0100004C33.0087 0.149999 33.0537 0.409999 33.0537 0.769999C33.0537 1.45 32.7987 2.935 32.2887 5.225C31.7887 7.505 31.5387 8.82 31.5387 9.17C31.5387 9.52 31.5987 9.695 31.7187 9.695C31.8187 9.695 32.0337 9.63 32.3637 9.5L32.5287 9.425L32.8887 10.16Z" fill="#5661F6"/>
</svg>
